<svg width="246" height="46" viewBox="0 0 246 46" fill="none" xmlns="http://www.w3.org/2000/svg">
<path fill-rule="evenodd" clip-rule="evenodd" d="M13.577 7.09167L13.5814 14.1833L15.2493 15.6273C17.5026 17.5781 17.7985 17.9104 17.8692 18.569L17.9286 19.1213L13.2422 23.169L8.55606 27.2167L8.54798 36.6083C8.54371 41.7738 8.59495 46 8.66205 46C8.729 46 9.49012 45.3965 10.3531 44.6588L11.9225 43.3176L11.8176 35.5738L11.7127 27.83L16.0552 23.8656L20.3977 19.9011L20.1718 19.0356C20.0475 18.5595 19.9359 17.6174 19.9236 16.9421L19.9013 15.7142L18.0332 14.1309L16.165 12.5474V7.45844V2.36946L14.9798 1.18481C14.3279 0.53314 13.7446 0 13.6836 0C13.6226 0 13.5745 3.19133 13.577 7.09167ZM45.9915 1.21394L44.7913 2.42773L44.8674 7.47086L44.9436 12.5138L43.0836 14.0561L41.2237 15.5983L41.1235 16.9608C41.0685 17.7102 40.928 18.68 40.8112 19.1161L40.5991 19.9088L44.9284 23.9117L49.2576 27.9145V35.7161V43.5175L50.8207 44.7517L52.3838 45.9859L52.4233 36.8313C52.4451 31.7963 52.4326 27.5971 52.3957 27.4999C52.3586 27.4027 50.265 25.4808 47.7431 23.2292C42.0095 18.1104 42.2343 18.7655 45.2855 16.0661L47.4134 14.1833L47.4205 7.09167C47.4243 3.19133 47.3745 0 47.3097 0C47.2447 0 46.6515 0.546173 45.9915 1.21394ZM18.2418 4.40297C18.1899 4.4551 18.1475 6.33972 18.1475 8.59111V12.6843L19.47 13.961L20.7924 15.2375L20.8174 16.7803C20.836 17.9323 20.9288 18.5736 21.1837 19.3105L21.5251 20.2977L20.9836 20.7672C20.6856 21.0254 18.9316 22.6167 17.0854 24.3033L13.7289 27.37L13.7269 34.5383C13.726 38.481 13.767 41.7067 13.8182 41.7067C13.8695 41.7067 14.5214 41.2175 15.267 40.6197L16.6225 39.5329L16.6344 33.6047L16.6463 27.6767L19.3723 25.1467C20.8715 23.7552 22.5255 22.2229 23.0478 21.7417L23.9974 20.8668L23.6609 20.2084C22.8657 18.6522 22.6652 16.5517 23.1198 14.5418C23.3254 13.6332 23.3315 13.43 23.1579 13.2739C23.0443 13.1715 22.3867 12.5842 21.6968 11.9687L20.4424 10.8497L20.4006 8.39163L20.3588 5.93354L19.3474 5.12087C18.7913 4.67391 18.2936 4.35083 18.2418 4.40297ZM41.6707 5.08453L40.7175 5.85519L40.7089 8.40926L40.7 10.9633L39.1714 12.2489C37.9051 13.3138 37.6586 13.5902 37.7351 13.8589C38.3582 16.045 38.4114 16.8128 38.0476 18.3646C37.9236 18.8933 37.6509 19.6659 37.4414 20.0815L37.0606 20.8372L40.7072 24.2569L44.3538 27.6767L44.3669 33.6567L44.38 39.6367L45.7414 40.7483C46.4903 41.3597 47.1416 41.86 47.189 41.86C47.2363 41.86 47.275 38.6245 47.275 34.67V27.4801L43.4482 23.9128C39.9932 20.692 39.6298 20.3067 39.7065 19.9477C39.7531 19.7289 39.9026 19.0325 40.0385 18.4C40.1795 17.7433 40.2602 16.8323 40.2265 16.2763L40.1675 15.3027L41.5099 14.043L42.8526 12.7834V8.53837C42.8526 6.20356 42.8012 4.29793 42.7382 4.30361C42.6752 4.30943 42.195 4.66072 41.6707 5.08453ZM28.6612 10.707C26.3318 11.5662 24.8147 13.3558 24.368 15.7709C24.0825 17.3141 24.6755 19.3435 25.7815 20.6103L26.2936 21.1966L25.7661 21.6674C25.4761 21.9262 23.7461 23.5138 21.9219 25.1953L18.605 28.2526V33.446V38.6392L24.555 41.6312L30.5051 44.6232L36.4462 41.5934L42.3873 38.5633L42.3836 33.35L42.38 28.1367L39.263 25.3C37.5488 23.7398 35.8232 22.1772 35.4284 21.8276L34.7106 21.1919L35.2205 20.608C36.3246 19.3435 36.9172 17.3129 36.6321 15.7709C36.1865 13.3621 34.6157 11.4975 32.3799 10.7241C31.3147 10.3557 29.6342 10.3479 28.6612 10.707Z" fill="black"/>
<path d="M67.512 32V15.2H75.936C77.04 15.2 78.008 15.424 78.84 15.872C79.688 16.32 80.352 16.944 80.832 17.744C81.312 18.528 81.552 19.44 81.552 20.48C81.552 21.472 81.312 22.36 80.832 23.144C80.352 23.928 79.688 24.544 78.84 24.992C77.992 25.44 77.024 25.664 75.936 25.664H70.992V32H67.512ZM70.992 22.784H75.552C76.304 22.784 76.904 22.576 77.352 22.16C77.816 21.744 78.048 21.192 78.048 20.504C78.048 19.8 77.816 19.24 77.352 18.824C76.904 18.408 76.304 18.2 75.552 18.2H70.992V22.784ZM83.8479 32V15.2H96.7599V18.224H87.3279V22.064H93.5439V24.992H87.3279V28.976H96.8559V32H83.8479ZM103.901 32V18.272H98.2367V15.2H113.021V18.272H107.381V32H103.901ZM114.973 32V15.2H127.885V18.224H118.453V22.064H124.669V24.992H118.453V28.976H127.981V32H114.973ZM130.442 32V15.2H138.65C139.786 15.2 140.786 15.424 141.65 15.872C142.53 16.304 143.21 16.912 143.69 17.696C144.186 18.48 144.434 19.384 144.434 20.408C144.434 21.48 144.138 22.424 143.546 23.24C142.954 24.056 142.162 24.664 141.17 25.064L144.89 32H141.002L137.714 25.568H133.922V32H130.442ZM133.922 22.712H138.338C139.122 22.712 139.746 22.504 140.21 22.088C140.69 21.672 140.93 21.128 140.93 20.456C140.93 19.784 140.69 19.24 140.21 18.824C139.746 18.408 139.122 18.2 138.338 18.2H133.922V22.712ZM151.559 32V15.2H159.983C161.087 15.2 162.055 15.424 162.887 15.872C163.735 16.32 164.399 16.944 164.879 17.744C165.359 18.528 165.599 19.44 165.599 20.48C165.599 21.472 165.359 22.36 164.879 23.144C164.399 23.928 163.735 24.544 162.887 24.992C162.039 25.44 161.071 25.664 159.983 25.664H155.039V32H151.559ZM155.039 22.784H159.599C160.351 22.784 160.951 22.576 161.399 22.16C161.863 21.744 162.095 21.192 162.095 20.504C162.095 19.8 161.863 19.24 161.399 18.824C160.951 18.408 160.351 18.2 159.599 18.2H155.039V22.784ZM163.802 32L170.714 15.2H174.722L181.562 32H177.794L176.09 27.584H169.154L167.426 32H163.802ZM170.234 24.8H175.034L172.634 18.608L170.234 24.8ZM182.989 32V15.2H191.197C192.333 15.2 193.333 15.424 194.197 15.872C195.077 16.304 195.757 16.912 196.237 17.696C196.733 18.48 196.981 19.384 196.981 20.408C196.981 21.48 196.685 22.424 196.093 23.24C195.501 24.056 194.709 24.664 193.717 25.064L197.437 32H193.549L190.261 25.568H186.469V32H182.989ZM186.469 22.712H190.885C191.669 22.712 192.293 22.504 192.757 22.088C193.237 21.672 193.477 21.128 193.477 20.456C193.477 19.784 193.237 19.24 192.757 18.824C192.293 18.408 191.669 18.2 190.885 18.2H186.469V22.712ZM199.278 32V15.2H202.758V22.712L210.102 15.2H214.35L206.19 23.192L214.734 32H210.078L202.758 24.2V32H199.278ZM215.426 32V15.2H228.338V18.224H218.906V22.064H225.122V24.992H218.906V28.976H228.434V32H215.426ZM230.895 32V15.2H239.103C240.239 15.2 241.239 15.424 242.103 15.872C242.983 16.304 243.663 16.912 244.143 17.696C244.639 18.48 244.887 19.384 244.887 20.408C244.887 21.48 244.591 22.424 243.999 23.24C243.407 24.056 242.615 24.664 241.623 25.064L245.343 32H241.455L238.167 25.568H234.375V32H230.895ZM234.375 22.712H238.791C239.575 22.712 240.199 22.504 240.663 22.088C241.143 21.672 241.383 21.128 241.383 20.456C241.383 19.784 241.143 19.24 240.663 18.824C240.199 18.408 239.575 18.2 238.791 18.2H234.375V22.712Z" fill="black"/>
</svg>
